<svg width="195" height="110" viewBox="0 0 195 110" fill="none" xmlns="http://www.w3.org/2000/svg">
<g clip-path="url(#clip0_288_648)">
<path d="M25.2455 51.4412C24.4672 53.0339 23.6403 54.5675 22.9337 56.1602C21.4744 59.4506 20.389 62.836 20.1611 66.465C19.7336 73.2639 23.0156 78.8368 29.1728 81.717C32.3652 83.2096 35.7369 83.92 39.2392 84.1149C43.0282 84.3252 46.725 83.7482 50.4065 82.9172C64.7048 79.696 79.0083 76.5081 93.3117 73.31C106.366 70.3914 119.42 67.4703 132.474 64.5517C143.667 62.0486 154.86 59.5506 166.053 57.0475C175.126 55.0189 184.196 52.9903 193.272 50.9642C193.707 50.8667 194.145 50.759 194.601 50.8231C194.765 50.8462 194.934 50.8898 194.987 51.0719C195.044 51.254 194.926 51.3822 194.8 51.4899C194.519 51.7336 194.171 51.8567 193.828 51.9823C180.01 57.0322 166.196 62.0897 152.376 67.1292C129.806 75.3592 107.236 83.584 84.661 91.7961C73.2224 95.9585 61.7888 100.139 50.299 104.16C44.7614 106.099 39.1905 107.948 33.4098 109.048C28.3433 110.013 23.2563 110.385 18.1437 109.474C12.6753 108.5 7.78799 106.286 3.7865 102.362C1.45679 100.08 0.289366 97.2126 0.053834 93.9658C-0.261062 89.5981 0.965241 85.5511 2.68053 81.6246C5.05377 76.1824 8.32561 71.2839 11.9047 66.5804C15.8908 61.3408 20.2891 56.4628 24.8999 51.7746C25.0125 51.6592 25.1329 51.5515 25.2506 51.4412H25.2455Z" fill="#FAA64B"/>
<path d="M76.0973 42.5656C74.1029 49.6235 72.1086 56.684 70.1168 63.742C69.2848 66.6939 68.4476 69.6458 67.6335 72.6029C67.5234 73.0055 67.3468 73.1876 66.9167 73.2748C64.9684 73.6774 63.0304 74.1263 61.0924 74.5802C60.6725 74.6777 60.5573 74.6059 60.5547 74.1442C60.5368 70.8461 60.4882 67.5479 60.4447 64.2523C60.3653 58.2074 60.2808 52.1626 60.1989 46.1151C60.1349 45.733 60.0862 45.3483 60.14 44.9584C60.099 44.8789 60.0401 45.0097 60.1093 44.9687C60.2066 45.2149 60.0914 45.4252 60.0017 45.6406C59.5665 48.8234 59.1313 52.0087 58.6935 55.1914C58.1431 59.1795 57.5927 63.1701 57.0397 67.1581C56.6633 69.8792 56.287 72.5977 55.9132 75.3188C55.8723 75.6112 55.7724 75.7625 55.4422 75.8343C52.0525 76.5781 48.6655 77.3423 45.281 78.1143C44.8637 78.2092 44.8048 78.081 44.8586 77.704C45.7853 71.1384 46.7121 64.5729 47.6235 58.0074C48.7423 49.9698 49.8457 41.9296 50.9594 33.8919C51.2333 31.9172 51.5303 29.9475 51.7812 27.9702C51.8273 27.6085 51.9809 27.4906 52.2932 27.4213C57.1882 26.3339 62.0831 25.2516 66.9704 24.1386C67.5823 24.0001 67.485 24.3463 67.485 24.69C67.4697 32.6122 67.4543 40.5344 67.4364 48.4566C67.4364 48.5592 67.4364 48.6592 67.4364 48.908C67.8076 48.095 67.9356 47.3487 68.1302 46.628C70.2602 38.7443 72.3774 30.8554 74.487 22.9639C74.5894 22.5844 74.7481 22.4074 75.1449 22.3202C79.9605 21.2585 84.7761 20.1864 89.5841 19.0888C90.2215 18.9426 90.1729 19.2196 90.1114 19.653C89.561 23.5589 89.0157 27.4675 88.473 31.376C87.8406 35.9283 87.2108 40.4831 86.5759 45.0354C85.9845 49.285 85.3829 53.5346 84.794 57.7843C84.282 61.4697 83.7674 65.1577 83.281 68.8482C83.2068 69.4176 83.0378 69.6971 82.4182 69.8279C79.2002 70.5024 75.9974 71.241 72.7896 71.9591C72.1291 72.1079 72.1393 72.1079 72.2315 71.4616C72.828 67.212 73.4194 62.9623 74.0133 58.7127C74.6867 53.8988 75.3625 49.085 76.0333 44.2711C76.1075 43.7479 76.1639 43.2222 76.2279 42.6964C76.256 42.4476 76.2202 42.1886 76.3098 41.9604C76.2253 42.1424 76.2842 42.4015 76.0947 42.5605L76.0973 42.5656Z" fill="#176BE8"/>
<path d="M140.078 7.17078C140.84 7.21181 141.857 7.21438 142.855 7.43494C145.805 8.09149 147.369 10.0047 147.466 13.0413C147.543 15.4213 147.044 17.7372 146.739 20.0736C146.706 20.3249 146.55 20.389 146.329 20.4377C142.763 21.2302 139.197 22.0227 135.633 22.8331C135.111 22.9511 135.267 22.6126 135.295 22.3894C135.467 21.0789 135.651 19.7684 135.835 18.4604C135.905 17.9757 135.963 17.491 135.889 17.0011C135.792 16.3651 135.416 16.0368 134.775 16.0137C133.385 15.9624 131.834 17.0883 131.481 18.4553C131.145 19.7581 130.974 21.0917 130.948 22.4382C130.93 23.3691 131.332 24.0565 132.098 24.5925C134.601 26.3467 137.328 27.7137 139.98 29.214C142.522 30.6528 144.253 32.7122 144.755 35.641C145.108 37.703 145.029 39.7855 144.67 41.8424C144.033 45.4893 142.807 48.9157 140.661 51.9625C138.173 55.494 134.653 57.5355 130.623 58.8101C127.761 59.7154 124.837 60.1591 121.849 59.6872C118.153 59.1051 116.084 56.7558 115.877 53.0089C115.713 50.0621 116.202 47.1691 116.647 44.2762C116.691 43.9864 116.826 43.8402 117.144 43.771C120.613 43.0118 124.079 42.2399 127.543 41.45C128.004 41.3448 128.191 41.332 128.104 41.9142C127.768 44.1659 127.479 46.428 127.172 48.6849C127.093 49.2722 127.044 49.8595 127.238 50.4365C127.446 51.0469 127.876 51.3675 128.519 51.3726C129.655 51.3829 130.569 50.9187 131.248 50.0159C131.765 49.326 132.11 48.5643 132.251 47.6923C132.479 46.2869 132.75 44.8917 132.914 43.476C133.122 41.6885 132.497 40.3549 130.905 39.529C129.481 38.793 128.03 38.1108 126.583 37.4235C125.539 36.9259 124.507 36.4053 123.506 35.8231C121.02 34.3715 119.609 32.1685 119.33 29.3627C118.777 23.7769 120.068 18.6502 123.598 14.2031C125.807 11.4204 128.782 9.75082 132.075 8.58903C134.581 7.70423 137.154 7.17078 140.075 7.16821L140.078 7.17078Z" fill="#176BE8"/>
<path d="M171.959 0C173.06 0 174.158 0.0538578 175.231 0.307759C177.955 0.951487 179.511 2.95192 179.588 5.81407C179.642 7.80168 179.365 9.75339 179.033 11.7C178.948 12.1949 179.076 12.8361 178.72 13.1464C178.395 13.4285 177.804 13.4029 177.327 13.5106C174.179 14.2185 171.027 14.9212 167.881 15.6367C167.481 15.7265 167.346 15.6752 167.415 15.2161C167.65 13.6671 167.855 12.1154 168.055 10.5613C168.229 9.21994 167.502 8.57621 166.199 8.9327C164.801 9.3174 163.818 10.1432 163.523 11.6281C163.283 12.8464 163.085 14.0697 163.083 15.3187C163.083 16.2086 163.449 16.8831 164.176 17.3781C166.025 18.6374 167.939 19.7863 169.921 20.825C171.234 21.5123 172.553 22.2022 173.718 23.1332C175.791 24.7925 176.844 26.9827 177.03 29.6115C177.368 34.3407 176.191 38.7314 173.994 42.8708C171.585 47.4128 167.678 50.0852 162.883 51.6009C160.185 52.4549 157.438 52.9037 154.596 52.6062C150.525 52.1805 148.219 49.8313 147.999 45.7329C147.842 42.8092 148.316 39.9317 148.792 37.0567C148.843 36.7464 149.01 36.6592 149.263 36.6028C152.771 35.8231 156.278 35.0435 159.785 34.251C160.195 34.1587 160.313 34.2125 160.249 34.6716C159.903 37.108 159.588 39.5496 159.261 41.9885C159.25 42.0681 159.232 42.1501 159.227 42.2296C159.133 43.7479 160.016 44.4916 161.485 44.1121C162.983 43.7248 163.823 42.622 164.197 41.2345C164.657 39.529 164.913 37.7723 165.062 36.0052C165.208 34.2664 164.442 33.061 162.934 32.3018C161.357 31.5094 159.762 30.7502 158.167 29.9885C157.361 29.6038 156.575 29.1832 155.794 28.7447C153.137 27.2495 151.68 24.9259 151.427 21.9483C150.963 16.5189 152.231 11.5256 155.61 7.17078C157.038 5.32679 158.838 3.90084 160.912 2.84677C164.383 1.08228 168.039 0.0230819 171.959 0Z" fill="#176BE8"/>
<path d="M118.739 12.6181C118.549 14.0338 118.367 15.3982 118.181 16.7626C118.007 18.0321 117.822 19.3016 117.661 20.5711C117.615 20.943 117.474 21.1071 117.077 21.1917C115.05 21.6124 113.035 22.0868 111.012 22.5254C110.61 22.6126 110.423 22.7639 110.365 23.2204C109.799 27.4726 109.195 31.7222 108.606 35.9719C108.055 39.9394 107.513 43.9095 106.965 47.877C106.376 52.1266 105.787 56.3763 105.196 60.6259C105.024 61.8544 104.83 63.0803 104.689 64.3113C104.643 64.7216 104.51 64.8858 104.092 64.9781C100.761 65.7014 97.4359 66.4554 94.1103 67.2068C93.7314 67.2914 93.5701 67.2914 93.6418 66.799C94.0923 63.7009 94.5071 60.5951 94.9372 57.4944C95.567 52.9627 96.2019 48.431 96.8342 43.9018C97.5127 39.0494 98.1911 34.1946 98.8695 29.3422C99.0385 28.1343 99.1947 26.9238 99.3841 25.7184C99.4609 25.2362 99.3509 25.1208 98.8619 25.2362C96.847 25.7107 94.822 26.1415 92.8046 26.6109C92.4052 26.7032 92.3156 26.6519 92.3796 26.221C92.7483 23.7461 93.0888 21.2687 93.4293 18.7912C93.4805 18.4142 93.5854 18.1962 94.0207 18.1013C102.144 16.3061 110.265 14.4903 118.385 12.6797C118.48 12.6591 118.575 12.6463 118.741 12.6181H118.739Z" fill="#176BE8"/>
<path d="M60.0043 45.6432C59.9275 45.3713 60.1169 45.1584 60.1989 44.9122V46.1176C60.1348 45.9586 60.0683 45.8022 60.0043 45.6432Z" fill="#8D95C9"/>
<path d="M76.0973 42.5656C76.1434 42.3553 76.1895 42.145 76.2714 41.7629C76.3661 42.2014 76.3712 42.4553 76.2279 42.699C76.1843 42.6554 76.1408 42.6092 76.0947 42.5656H76.0973Z" fill="#B1B6DB"/>
<path d="M60.0043 45.6432C59.9275 45.3713 60.1169 45.1584 60.1989 44.9122V46.1176C60.1348 45.9586 60.0683 45.8022 60.0043 45.6432Z" fill="#8D95C9"/>
<path d="M76.0973 42.5656C76.1434 42.3553 76.1895 42.145 76.2714 41.7629C76.3661 42.2014 76.3712 42.4553 76.2279 42.699C76.1843 42.6554 76.1408 42.6092 76.0947 42.5656H76.0973Z" fill="#B1B6DB"/>
</g>
<defs>
<clipPath id="clip0_288_648">
<rect width="195.002" height="110" fill="white"/>
</clipPath>
</defs>
</svg>
